<svg width="30" height="30" viewBox="0 0 30 30" fill="none" xmlns="http://www.w3.org/2000/svg">
<path d="M15.4998 20.6249C12.5369 20.6249 10.1385 18.3316 9.91781 15.4254L5.8202 12.2586C5.28153 12.9344 4.78583 13.6488 4.38584 14.4301C4.29648 14.6068 4.24992 14.8021 4.24992 15.0002C4.24992 15.1983 4.29648 15.3935 4.38584 15.5703C6.50418 19.7035 10.6979 22.4999 15.4998 22.4999C16.5509 22.4999 17.565 22.3437 18.5423 22.0913L16.5154 20.523C16.1806 20.5877 15.8407 20.6218 15.4998 20.6249ZM27.7583 22.8945L23.4399 19.557C24.7517 18.4515 25.8306 17.0962 26.6137 15.5699C26.7031 15.3932 26.7497 15.1979 26.7497 14.9998C26.7497 14.8017 26.7031 14.6065 26.6137 14.4297C24.4954 10.2965 20.3017 7.50008 15.4998 7.50008C13.4887 7.50251 11.5102 8.00881 9.74516 8.97272L4.77568 5.13174C4.71088 5.08132 4.63677 5.04415 4.5576 5.02238C4.47843 5.0006 4.39574 4.99464 4.31427 5.00483C4.23279 5.01503 4.15412 5.04118 4.08276 5.08179C4.01139 5.1224 3.94873 5.17667 3.89834 5.24151L3.13155 6.22861C3.02984 6.35946 2.98426 6.52535 3.00484 6.68981C3.02543 6.85426 3.11049 7.00381 3.24132 7.10555L26.2239 24.8683C26.2887 24.9187 26.3628 24.9558 26.442 24.9776C26.5211 24.9994 26.6038 25.0054 26.6853 24.9952C26.7668 24.985 26.8455 24.9588 26.9168 24.9182C26.9882 24.8776 27.0508 24.8233 27.1012 24.7585L27.8684 23.7714C27.9701 23.6405 28.0156 23.4746 27.9949 23.3101C27.9743 23.1457 27.8891 22.9961 27.7583 22.8945ZM20.5818 17.3476L19.0466 16.1609C19.1759 15.7873 19.2445 15.3953 19.2497 15C19.2574 14.4212 19.1291 13.8487 18.8754 13.3284C18.6216 12.8082 18.2493 12.3547 17.7885 12.0044C17.3277 11.6541 16.7911 11.4168 16.2219 11.3115C15.6527 11.2062 15.0668 11.2359 14.5111 11.3981C14.7467 11.7173 14.8741 12.1033 14.8748 12.5C14.869 12.632 14.8488 12.763 14.8146 12.8906L11.9393 10.6684C12.9381 9.83373 14.1981 9.37602 15.4998 9.37506C16.2386 9.37465 16.9702 9.51986 17.6528 9.80239C18.3355 10.0849 18.9557 10.4992 19.4781 11.0216C20.0005 11.5441 20.4149 12.1643 20.6974 12.8469C20.9799 13.5296 21.1251 14.2612 21.1247 15C21.1247 15.8449 20.9181 16.6324 20.5818 17.348V17.3476Z" fill="#666666" fill-opacity="0.6"/>
</svg>
