<svg width="30" height="30" viewBox="0 0 30 30" fill="none" xmlns="http://www.w3.org/2000/svg">
<path d="M25.8821 14.2805C23.7637 10.1473 19.57 7.35083 14.768 7.35083C9.96609 7.35083 5.77117 10.1493 3.65398 14.2809C3.56462 14.4577 3.51807 14.653 3.51807 14.851C3.51807 15.0491 3.56462 15.2444 3.65398 15.4211C5.77234 19.5543 9.96609 22.3508 14.768 22.3508C19.57 22.3508 23.7649 19.5524 25.8821 15.4208C25.9715 15.244 26.018 15.0487 26.018 14.8506C26.018 14.6526 25.9715 14.4573 25.8821 14.2805ZM14.768 20.4758C13.6555 20.4758 12.568 20.1459 11.643 19.5278C10.7179 18.9098 9.99697 18.0313 9.57122 17.0034C9.14548 15.9756 9.03409 14.8446 9.25113 13.7534C9.46817 12.6623 10.0039 11.66 10.7906 10.8734C11.5772 10.0867 12.5795 9.55095 13.6707 9.33391C14.7618 9.11687 15.8928 9.22826 16.9206 9.65401C17.9485 10.0798 18.827 10.8007 19.4451 11.7257C20.0631 12.6508 20.393 13.7383 20.393 14.8508C20.3934 15.5896 20.2482 16.3212 19.9656 17.0038C19.683 17.6865 19.2687 18.3067 18.7463 18.8291C18.2239 19.3515 17.6037 19.7658 16.9211 20.0484C16.2384 20.3309 15.5068 20.4762 14.768 20.4758ZM14.768 11.1008C14.4333 11.1055 14.1008 11.1553 13.7794 11.2489C14.0443 11.6089 14.1714 12.052 14.1377 12.4977C14.104 12.9434 13.9117 13.3623 13.5956 13.6784C13.2795 13.9944 12.8606 14.1868 12.4149 14.2205C11.9692 14.2542 11.5261 14.1271 11.1661 13.8622C10.9611 14.6175 10.9981 15.418 11.2719 16.1512C11.5457 16.8844 12.0426 17.5132 12.6925 17.9493C13.3424 18.3853 14.1127 18.6065 14.895 18.5818C15.6772 18.5571 16.432 18.2877 17.0532 17.8115C17.6743 17.3353 18.1304 16.6764 18.3574 15.9274C18.5844 15.1784 18.5708 14.3771 18.3186 13.6362C18.0663 12.8953 17.588 12.2523 16.9511 11.7974C16.3142 11.3426 15.5507 11.099 14.768 11.1008Z" fill="#666666" fill-opacity="0.6"/>
</svg>
